<svg xmlns="http://www.w3.org/2000/svg" xmlns:xlink="http://www.w3.org/1999/xlink" width="1080" zoomAndPan="magnify" viewBox="0 0 810 809.999993" height="1080" preserveAspectRatio="xMidYMid meet" version="1.0"><defs><g/><clipPath id="01a4d925d7"><path d="M 33.578125 305 L 181 305 L 181 452 L 33.578125 452 Z M 33.578125 305 " clip-rule="nonzero"/></clipPath></defs><g clip-path="url(#01a4d925d7)"><path fill="#f76319" d="M 44.566406 433.691406 L 91.410156 433.691406 C 92.453125 433.675781 93.296875 434.507812 93.296875 435.550781 C 93.296875 436.589844 92.453125 437.421875 91.410156 437.410156 L 44.566406 437.410156 C 43.539062 437.421875 42.695312 436.589844 42.695312 435.550781 C 42.695312 434.507812 43.539062 433.675781 44.566406 433.691406 Z M 44.566406 425.105469 L 96.066406 425.105469 C 97.109375 425.09375 97.953125 425.9375 97.953125 426.964844 C 97.953125 427.992188 97.109375 428.839844 96.066406 428.828125 L 44.566406 428.828125 C 43.539062 428.839844 42.695312 427.992188 42.695312 426.964844 C 42.695312 425.9375 43.539062 425.09375 44.566406 425.105469 Z M 130.972656 422.351562 C 132.625 422.351562 134.25 422.777344 135.695312 423.558594 C 137.097656 422.792969 138.722656 422.351562 140.425781 422.351562 C 145.875 422.351562 150.335938 426.8125 150.335938 432.257812 C 150.335938 437.707031 145.875 442.167969 140.425781 442.167969 C 138.710938 442.167969 137.097656 441.742188 135.695312 440.960938 C 134.25 441.753906 132.625 442.167969 130.972656 442.167969 C 125.511719 442.167969 121.050781 437.707031 121.050781 432.257812 C 121.050781 426.8125 125.511719 422.351562 130.972656 422.351562 Z M 44.4375 393.101562 L 61.605469 393.101562 C 62.632812 393.101562 63.464844 393.933594 63.464844 394.972656 L 63.464844 412.128906 C 63.464844 413.15625 62.632812 413.988281 61.605469 413.988281 L 44.4375 413.988281 C 43.421875 413.988281 42.589844 413.15625 42.589844 412.128906 L 42.589844 394.972656 C 42.589844 393.933594 43.421875 393.101562 44.4375 393.101562 Z M 42.796875 374.945312 C 37.714844 374.945312 33.578125 379.082031 33.578125 384.152344 L 33.578125 442.457031 C 33.578125 447.539062 37.714844 451.675781 42.796875 451.675781 L 151.183594 451.675781 C 156.253906 451.675781 160.402344 447.539062 160.402344 442.457031 L 160.402344 384.152344 C 160.402344 379.082031 156.253906 374.945312 151.183594 374.945312 Z M 161.417969 328.402344 L 81.292969 370.695312 L 152.601562 370.695312 C 157.671875 370.695312 163.730469 375.765625 163.730469 379.65625 L 163.730469 379.925781 L 175.164062 374.101562 C 179.675781 371.785156 181.367188 366.128906 178.988281 361.65625 Z M 143.691406 305.1875 C 142.195312 305.160156 140.6875 305.511719 139.296875 306.253906 L 43.449219 356.84375 C 38.960938 359.210938 37.230469 364.800781 39.597656 369.289062 L 40.328125 370.65625 L 49.328125 370.65625 L 154.421875 315.175781 L 151.742188 310.101562 C 150.117188 307.007812 146.957031 305.238281 143.691406 305.1875 " fill-opacity="1" fill-rule="nonzero"/></g><g fill="#f76319" fill-opacity="1"><g transform="translate(191.650347, 424.369708)"><g><path d="M 71.679688 -14.65625 C 47.976562 -14.65625 21.527344 -25.078125 21.527344 -40.078125 C 21.527344 -54.960938 47.976562 -65.382812 71.679688 -65.382812 C 87.597656 -65.382812 102.253906 -61.488281 111.984375 -54.734375 L 120.457031 -66.757812 C 108.320312 -75.230469 90.457031 -80.152344 71.679688 -80.152344 C 35.382812 -80.152344 6.871094 -62.519531 6.871094 -40.078125 C 6.871094 -17.519531 35.382812 0 71.679688 0 C 90.574219 0 108.320312 -4.808594 120.574219 -13.28125 L 112.101562 -25.421875 C 102.367188 -18.550781 87.597656 -14.65625 71.679688 -14.65625 Z M 71.679688 -14.65625 "/></g></g></g><g fill="#f76319" fill-opacity="1"><g transform="translate(319.208429, 424.369708)"><g><path d="M 64.007812 -80.152344 L 6.871094 0 L 24.617188 0 L 36.070312 -15.800781 L 109.582031 -15.800781 L 120.917969 0 L 139.125 0 L 81.871094 -80.152344 Z M 46.601562 -30.574219 L 72.824219 -67.328125 L 99.046875 -30.574219 Z M 46.601562 -30.574219 "/></g></g><g transform="translate(465.31627, 424.369708)"><g><path d="M 49.925781 -55.191406 C 49.925781 -71.792969 42.9375 -80.269531 28.96875 -80.269531 L 6.871094 -80.269531 L 6.871094 0 L 21.527344 0 L 21.527344 -27.59375 L 23.589844 -27.59375 L 34.121094 0 L 49.808594 0 L 38.589844 -29.65625 C 48.320312 -33.894531 49.925781 -44.65625 49.925781 -55.191406 Z M 27.710938 -41.910156 L 21.527344 -41.910156 L 21.527344 -65.953125 L 27.136719 -65.953125 C 30.800781 -65.953125 35.265625 -62.976562 35.265625 -54.503906 C 35.265625 -45.230469 30.6875 -41.910156 27.710938 -41.910156 Z M 27.710938 -41.910156 "/></g></g><g transform="translate(522.225045, 424.369708)"><g><path d="M 41.335938 -80.269531 L 6.871094 -80.269531 L 6.871094 -65.496094 L 16.71875 -65.496094 L 16.71875 0 L 31.488281 0 L 31.488281 -65.496094 L 41.335938 -65.496094 Z M 41.335938 -80.269531 "/></g></g></g><g fill="#f76319" fill-opacity="1"><g transform="translate(570.545943, 424.369708)"><g><path d="M 17.863281 -88.28125 C 19.351562 -89.542969 20.726562 -90.574219 21.984375 -91.144531 C 23.246094 -91.605469 24.273438 -91.144531 27.480469 -89.199219 C 28.855469 -88.28125 30.457031 -87.253906 32.175781 -86.449219 C 34.238281 -85.648438 36.183594 -85.191406 37.902344 -85.191406 C 44.199219 -85.191406 49.007812 -89.773438 52.441406 -92.976562 L 45.113281 -100.878906 L 45 -100.878906 C 40.535156 -96.640625 38.703125 -95.382812 36.414062 -96.414062 C 35.496094 -96.757812 34.351562 -97.445312 33.207031 -98.246094 C 29.769531 -100.421875 24.617188 -103.742188 17.976562 -101.109375 C 15.113281 -99.960938 12.9375 -98.128906 10.992188 -96.640625 C 10.417969 -96.070312 9.734375 -95.496094 9.160156 -95.152344 L 15.574219 -86.449219 C 16.375 -87.023438 17.175781 -87.710938 17.863281 -88.28125 Z M 40.761719 0.113281 L 55.878906 0.113281 L 38.816406 -80.269531 L 23.128906 -80.269531 L 6.871094 0.113281 L 21.871094 0.113281 L 25.078125 -15.917969 L 37.441406 -15.917969 Z M 28.167969 -30.6875 L 31.144531 -45.34375 L 34.238281 -30.6875 Z M 28.167969 -30.6875 "/></g></g></g><g fill="#f76319" fill-opacity="1"><g transform="translate(633.408928, 424.369708)"><g><path d="M 69.847656 -80.152344 C 34.582031 -80.152344 6.871094 -62.519531 6.871094 -39.960938 C 6.871094 -17.519531 34.582031 0 69.847656 0 C 105.230469 0 132.941406 -17.519531 132.941406 -39.960938 C 132.941406 -62.519531 105.230469 -80.152344 69.847656 -80.152344 Z M 69.847656 -13.742188 C 47.0625 -13.742188 21.527344 -25.078125 21.527344 -39.960938 C 21.527344 -54.960938 47.0625 -66.296875 69.847656 -66.296875 C 92.75 -66.296875 118.167969 -54.960938 118.167969 -39.960938 C 118.167969 -25.078125 92.75 -13.742188 69.847656 -13.742188 Z M 69.847656 -13.742188 "/></g></g></g></svg>