<svg xmlns="http://www.w3.org/2000/svg" xmlns:xlink="http://www.w3.org/1999/xlink" width="1080" zoomAndPan="magnify" viewBox="0 0 810 809.999993" height="1080" preserveAspectRatio="xMidYMid meet" version="1.0"><defs><g/><clipPath id="a66cc92ca8"><path d="M 594.660156 382.921875 L 786.378906 382.921875 L 786.378906 500.652344 L 594.660156 500.652344 Z M 594.660156 382.921875 " clip-rule="nonzero"/></clipPath><clipPath id="e59c1be043"><path d="M 690.519531 382.921875 C 637.578125 382.921875 594.660156 409.277344 594.660156 441.789062 C 594.660156 474.296875 637.578125 500.652344 690.519531 500.652344 C 743.460938 500.652344 786.378906 474.296875 786.378906 441.789062 C 786.378906 409.277344 743.460938 382.921875 690.519531 382.921875 Z M 690.519531 382.921875 " clip-rule="nonzero"/></clipPath><clipPath id="cd411f9cad"><path d="M 349.011719 231.765625 L 465.191406 231.765625 L 465.191406 301.792969 L 349.011719 301.792969 Z M 349.011719 231.765625 " clip-rule="nonzero"/></clipPath><clipPath id="9d96b62691"><path d="M 407.101562 231.765625 L 465.191406 301.792969 L 349.011719 301.792969 Z M 407.101562 231.765625 " clip-rule="nonzero"/></clipPath></defs><g fill="#f8631a" fill-opacity="1"><g transform="translate(21.09618, 493.215386)"><g><path d="M 81.535156 -129.902344 L 58.558594 -47.253906 L 35.207031 -129.71875 L 34.839844 -129.71875 L 34.839844 -129.902344 L 11.117188 -129.902344 L 11.117188 0 L 34.839844 0 L 34.839844 -43.363281 L 47.253906 0 L 70.234375 0 L 81.722656 -40.953125 L 81.722656 0 L 105.625 0 L 105.625 -129.902344 Z M 81.535156 -129.902344 "/></g></g></g><g fill="#f8631a" fill-opacity="1"><g transform="translate(137.841748, 493.215386)"><g><path d="M 34.839844 0 L 34.839844 -129.71875 L 11.117188 -129.71875 L 11.117188 0 Z M 34.839844 0 "/></g></g><g transform="translate(183.984048, 493.215386)"><g><path d="M 51.703125 -77.089844 C 48.550781 -79.128906 45.773438 -81.164062 42.992188 -83.203125 C 32.429688 -91.914062 34.839844 -98.214844 35.765625 -100.625 C 37.804688 -105.441406 43.546875 -107.109375 48.179688 -105.996094 C 54.667969 -104.328125 56.148438 -97.472656 56.335938 -91.542969 L 80.238281 -91.542969 C 79.867188 -103.960938 75.976562 -114.335938 69.121094 -121.191406 C 56.890625 -132.867188 35.578125 -131.753906 24.089844 -123.230469 C 19.457031 -119.894531 15.9375 -115.078125 13.714844 -109.332031 C 7.414062 -93.582031 12.601562 -77.460938 27.980469 -64.859375 C 31.316406 -62.078125 34.839844 -59.671875 38.175781 -57.445312 C 45.03125 -52.628906 50.960938 -48.550781 54.109375 -42.25 C 57.074219 -36.320312 56.148438 -30.019531 53.554688 -26.683594 C 52.441406 -25.203125 50.40625 -23.164062 45.585938 -24.089844 C 42.808594 -24.460938 35.765625 -25.574219 35.207031 -43.734375 L 11.304688 -43.734375 C 12.230469 -10.378906 30.761719 -2.222656 41.695312 -0.371094 C 43.734375 -0.183594 45.773438 0 47.808594 0 C 57.816406 0 66.898438 -4.261719 72.828125 -12.414062 C 80.980469 -23.535156 82.09375 -39.65625 75.605469 -52.8125 C 69.675781 -64.671875 60.039062 -71.160156 51.703125 -77.089844 Z M 51.703125 -77.089844 "/></g></g></g><g fill="#f8631a" fill-opacity="1"><g transform="translate(275.527379, 493.215386)"><g><path d="M 118.042969 -76.902344 C 115.261719 -76.902344 112.667969 -77.089844 110.257812 -77.089844 C 106.925781 -77.089844 102.660156 -77.089844 98.027344 -77.089844 C 81.351562 -76.902344 46.328125 -76.71875 36.691406 -86.167969 C 35.394531 -87.464844 34.839844 -88.578125 34.839844 -90.429688 C 34.839844 -95.25 34.839844 -105.441406 108.59375 -105.441406 C 145.46875 -105.441406 157.515625 -97.101562 160.847656 -93.394531 C 162.332031 -91.914062 163.074219 -90.429688 163.257812 -89.503906 L 187.347656 -89.503906 C 187.164062 -94.136719 185.679688 -100.996094 179.9375 -107.851562 C 168.261719 -122.121094 144.355469 -129.347656 108.59375 -129.347656 C 55.222656 -129.347656 11.117188 -126.382812 11.117188 -90.429688 C 11.117188 -82.277344 14.082031 -74.867188 19.828125 -69.304688 C 35.207031 -53.925781 65.785156 -53 98.214844 -53.183594 C 102.660156 -53.183594 106.554688 -53.371094 109.519531 -53.183594 C 112.113281 -53.183594 114.890625 -53.183594 117.859375 -53.183594 C 147.320312 -52.8125 164.554688 -50.40625 164.554688 -38.542969 C 164.554688 -31.875 154.917969 -23.71875 109.703125 -23.71875 C 79.3125 -23.71875 62.265625 -25.757812 50.21875 -30.945312 C 39.65625 -35.394531 36.875 -37.804688 36.136719 -41.507812 L 12.230469 -41.507812 C 13.714844 -23.90625 24.089844 -16.121094 40.953125 -8.894531 C 56.148438 -2.410156 75.421875 0.183594 109.703125 0.183594 C 133.238281 0.183594 188.460938 0.183594 188.460938 -38.542969 C 188.460938 -76.535156 142.503906 -76.71875 118.042969 -76.902344 Z M 118.042969 -76.902344 "/></g></g></g><g fill="#f8631a" fill-opacity="1"><g transform="translate(475.291985, 493.215386)"><g><path d="M 28.910156 -142.875 C 31.316406 -144.914062 33.542969 -146.582031 35.578125 -147.507812 C 37.617188 -148.25 39.285156 -147.507812 44.472656 -144.355469 C 46.699219 -142.875 49.292969 -141.207031 52.070312 -139.910156 C 55.40625 -138.613281 58.558594 -137.871094 61.335938 -137.871094 C 71.53125 -137.871094 79.3125 -145.285156 84.871094 -150.472656 L 73.011719 -163.257812 L 72.828125 -163.257812 C 65.601562 -156.402344 62.636719 -154.363281 58.929688 -156.03125 C 57.445312 -156.585938 55.59375 -157.699219 53.738281 -158.996094 C 48.179688 -162.515625 39.839844 -167.890625 29.09375 -163.628906 C 24.460938 -161.777344 20.941406 -158.8125 17.789062 -156.402344 C 16.863281 -155.476562 15.75 -154.550781 14.824219 -153.992188 L 25.203125 -139.910156 C 26.5 -140.835938 27.796875 -141.949219 28.910156 -142.875 Z M 65.96875 0.183594 L 90.429688 0.183594 L 62.820312 -129.902344 L 37.433594 -129.902344 L 11.117188 0.183594 L 35.394531 0.183594 L 40.582031 -25.757812 L 60.597656 -25.757812 Z M 45.585938 -49.664062 L 50.40625 -73.382812 L 55.40625 -49.664062 Z M 45.585938 -49.664062 "/></g></g></g><g fill="#f8631a" fill-opacity="1"><g transform="translate(577.027372, 493.215386)"><g><path d="M 113.039062 -129.71875 C 55.964844 -129.71875 11.117188 -101.179688 11.117188 -64.671875 C 11.117188 -28.351562 55.964844 0 113.039062 0 C 170.300781 0 215.144531 -28.351562 215.144531 -64.671875 C 215.144531 -101.179688 170.300781 -129.71875 113.039062 -129.71875 Z M 113.039062 -22.238281 C 76.164062 -22.238281 34.839844 -40.582031 34.839844 -64.671875 C 34.839844 -88.949219 76.164062 -107.292969 113.039062 -107.292969 C 150.101562 -107.292969 191.242188 -88.949219 191.242188 -64.671875 C 191.242188 -40.582031 150.101562 -22.238281 113.039062 -22.238281 Z M 113.039062 -22.238281 "/></g></g></g><g clip-path="url(#a66cc92ca8)"><g clip-path="url(#e59c1be043)"><path fill="#f8631a" d="M 594.660156 382.921875 L 786.378906 382.921875 L 786.378906 500.652344 L 594.660156 500.652344 Z M 594.660156 382.921875 " fill-opacity="1" fill-rule="nonzero"/></g></g><g fill="#f8631a" fill-opacity="1"><g transform="translate(310.568395, 321.735417)"><g><path d="M 84.9375 -106.359375 L 9.117188 0 L 32.667969 0 L 47.863281 -20.96875 L 145.410156 -20.96875 L 160.453125 0 L 184.613281 0 L 108.640625 -106.359375 Z M 61.839844 -40.570312 L 96.636719 -89.34375 L 131.433594 -40.570312 Z M 61.839844 -40.570312 "/></g></g></g><g clip-path="url(#cd411f9cad)"><g clip-path="url(#9d96b62691)"><path fill="#f8631a" d="M 349.011719 231.765625 L 465.191406 231.765625 L 465.191406 301.792969 L 349.011719 301.792969 Z M 349.011719 231.765625 " fill-opacity="1" fill-rule="nonzero"/></g></g></svg>