<svg xmlns="http://www.w3.org/2000/svg" xmlns:xlink="http://www.w3.org/1999/xlink" width="1080" zoomAndPan="magnify" viewBox="0 0 810 809.999993" height="1080" preserveAspectRatio="xMidYMid meet" version="1.0"><defs><g/></defs><g fill="#ffffff" fill-opacity="1"><g transform="translate(33.139624, 363.394489)"><g><path d="M 24.9375 -15.734375 C 23.402344 -12.023438 21.464844 -10.410156 20.335938 -10.410156 C 17.914062 -10.410156 13.394531 -17.1875 13.394531 -28.246094 C 13.394531 -39.378906 17.914062 -46.160156 20.335938 -46.160156 C 21.464844 -46.160156 23.402344 -44.464844 24.9375 -40.832031 L 34.539062 -44.949219 C 31.3125 -52.292969 26.144531 -56.570312 20.335938 -56.570312 C 10.492188 -56.570312 3.066406 -44.382812 3.066406 -28.246094 C 3.066406 -12.105469 10.492188 0 20.335938 0 C 26.226562 0 31.390625 -4.195312 34.539062 -11.621094 Z M 24.9375 -15.734375 "/></g></g></g><g fill="#ffffff" fill-opacity="1"><g transform="translate(71.955582, 363.394489)"><g><path d="M 18.722656 -56.570312 C 9.117188 -56.570312 1.855469 -44.382812 1.855469 -28.246094 C 1.855469 -12.105469 9.117188 0.0820312 18.722656 0.0820312 C 28.40625 0.0820312 35.667969 -12.105469 35.667969 -28.246094 C 35.667969 -44.382812 28.40625 -56.570312 18.722656 -56.570312 Z M 18.722656 -10.410156 C 16.867188 -10.410156 12.183594 -16.625 12.183594 -28.246094 C 12.183594 -39.863281 16.867188 -46.078125 18.722656 -46.078125 C 20.660156 -46.078125 25.257812 -39.863281 25.257812 -28.246094 C 25.257812 -16.625 20.660156 -10.410156 18.722656 -10.410156 Z M 18.722656 -10.410156 "/></g></g><g transform="translate(109.56107, 363.394489)"><g><path d="M 74.484375 -12.667969 L 19.207031 -56.488281 L 4.84375 -56.488281 L 4.84375 0 L 15.171875 0 L 15.171875 -46.320312 L 73.757812 0 L 84.894531 0 L 84.894531 -56.488281 L 74.484375 -56.488281 Z M 74.484375 -12.667969 "/></g></g></g><g fill="#ffffff" fill-opacity="1"><g transform="translate(199.378456, 363.394489)"><g><path d="M 31.554688 -46.160156 L 31.554688 -56.570312 L 4.84375 -56.570312 L 4.84375 0.0820312 L 15.171875 0.0820312 L 15.171875 -26.066406 L 26.628906 -26.066406 L 26.628906 -36.476562 L 15.171875 -36.476562 L 15.171875 -46.160156 Z M 31.554688 -46.160156 "/></g></g></g><g fill="#ffffff" fill-opacity="1"><g transform="translate(235.773472, 363.394489)"><g><path d="M 4.84375 0.0820312 L 82.152344 0.0820312 L 82.152344 -10.328125 L 15.253906 -10.328125 L 15.253906 -25.984375 L 65.769531 -25.984375 L 65.769531 -36.394531 L 15.253906 -36.394531 L 15.253906 -45.917969 L 82.152344 -45.917969 L 82.152344 -56.328125 L 4.84375 -56.328125 Z M 4.84375 0.0820312 "/></g></g></g><g fill="#ffffff" fill-opacity="1"><g transform="translate(322.847113, 363.394489)"><g><path d="M 35.183594 -38.898438 C 35.183594 -50.597656 30.261719 -56.570312 20.417969 -56.570312 L 4.84375 -56.570312 L 4.84375 0 L 15.171875 0 L 15.171875 -19.449219 L 16.625 -19.449219 L 24.046875 0 L 35.105469 0 L 27.195312 -20.902344 C 34.054688 -23.886719 35.183594 -31.472656 35.183594 -38.898438 Z M 19.527344 -29.535156 L 15.171875 -29.535156 L 15.171875 -46.480469 L 19.125 -46.480469 C 21.707031 -46.480469 24.855469 -44.382812 24.855469 -38.414062 C 24.855469 -31.875 21.628906 -29.535156 19.527344 -29.535156 Z M 19.527344 -29.535156 "/></g></g><g transform="translate(362.954253, 363.394489)"><g><path d="M 15.332031 -59.878906 L 19.691406 -65.042969 L 24.046875 -59.878906 L 34.621094 -59.878906 L 26.144531 -71.742188 L 26.144531 -71.820312 L 13.316406 -71.820312 L 13.316406 -71.742188 L 4.84375 -59.878906 Z M 6.375 0.0820312 L 33.085938 0.0820312 L 33.085938 -10.410156 L 16.785156 -10.410156 L 16.785156 -25.664062 L 28.246094 -25.664062 L 28.246094 -36.070312 L 16.785156 -36.070312 L 16.785156 -46.078125 L 33.085938 -46.078125 L 33.085938 -56.648438 L 6.375 -56.648438 Z M 6.375 0.0820312 "/></g></g></g><g fill="#ffffff" fill-opacity="1"><g transform="translate(402.496483, 363.394489)"><g><path d="M 26.144531 -56.570312 L 26.144531 -29.453125 L 15.898438 -56.570312 L 4.84375 -56.570312 L 4.84375 0 L 15.253906 0 L 15.253906 -28.808594 L 26.144531 0 L 26.144531 0.0820312 L 36.554688 0.0820312 L 36.554688 -56.570312 Z M 26.144531 -56.570312 "/></g></g></g><g fill="#ffffff" fill-opacity="1"><g transform="translate(443.894793, 363.394489)"><g><path d="M 50.515625 -10.328125 C 33.8125 -10.328125 15.171875 -17.671875 15.171875 -28.246094 C 15.171875 -38.734375 33.8125 -46.078125 50.515625 -46.078125 C 61.734375 -46.078125 72.0625 -43.335938 78.921875 -38.574219 L 84.894531 -47.046875 C 76.339844 -53.019531 63.75 -56.488281 50.515625 -56.488281 C 24.9375 -56.488281 4.84375 -44.0625 4.84375 -28.246094 C 4.84375 -12.347656 24.9375 0 50.515625 0 C 63.832031 0 76.339844 -3.390625 84.976562 -9.359375 L 79.003906 -17.914062 C 72.144531 -13.074219 61.734375 -10.328125 50.515625 -10.328125 Z M 50.515625 -10.328125 "/></g></g><g transform="translate(533.792891, 363.394489)"><g><path d="M 15.171875 0 L 15.171875 -56.488281 L 4.84375 -56.488281 L 4.84375 0 Z M 15.171875 0 "/></g></g><g transform="translate(553.886811, 363.394489)"><g><path d="M 28.730469 0.0820312 L 39.378906 0.0820312 L 27.355469 -56.488281 L 16.300781 -56.488281 L 4.84375 0.0820312 L 15.414062 0.0820312 L 17.671875 -11.21875 L 26.386719 -11.21875 Z M 19.851562 -21.628906 L 21.949219 -31.957031 L 24.128906 -21.628906 Z M 19.851562 -21.628906 "/></g></g></g><g fill="#ffffff" fill-opacity="1"><g transform="translate(598.197775, 363.394489)"><g/></g></g><g fill="#ffffff" fill-opacity="1"><g transform="translate(37.885405, 479.066782)"><g><path d="M 64.726562 -13.234375 C 43.324219 -13.234375 19.4375 -22.644531 19.4375 -36.1875 C 19.4375 -49.628906 43.324219 -59.039062 64.726562 -59.039062 C 79.097656 -59.039062 92.332031 -55.523438 101.121094 -49.425781 L 108.773438 -60.28125 C 97.8125 -67.933594 81.683594 -72.378906 64.726562 -72.378906 C 31.949219 -72.378906 6.203125 -56.453125 6.203125 -36.1875 C 6.203125 -15.820312 31.949219 0 64.726562 0 C 81.789062 0 97.8125 -4.34375 108.878906 -11.992188 L 101.226562 -22.953125 C 92.4375 -16.75 79.097656 -13.234375 64.726562 -13.234375 Z M 64.726562 -13.234375 "/></g></g></g><g fill="#ffffff" fill-opacity="1"><g transform="translate(153.070148, 479.066782)"><g><path d="M 23.988281 -72.480469 C 11.683594 -72.480469 2.378906 -56.867188 2.378906 -36.1875 C 2.378906 -15.507812 11.683594 0.101562 23.988281 0.101562 C 36.394531 0.101562 45.703125 -15.507812 45.703125 -36.1875 C 45.703125 -56.867188 36.394531 -72.480469 23.988281 -72.480469 Z M 23.988281 -13.339844 C 21.609375 -13.339844 15.613281 -21.300781 15.613281 -36.1875 C 15.613281 -51.078125 21.609375 -59.039062 23.988281 -59.039062 C 26.46875 -59.039062 32.363281 -51.078125 32.363281 -36.1875 C 32.363281 -21.300781 26.46875 -13.339844 23.988281 -13.339844 Z M 23.988281 -13.339844 "/></g></g><g transform="translate(201.25336, 479.066782)"><g><path d="M 95.4375 -16.234375 L 24.609375 -72.378906 L 6.203125 -72.378906 L 6.203125 0 L 19.4375 0 L 19.4375 -59.351562 L 94.503906 0 L 108.773438 0 L 108.773438 -72.378906 L 95.4375 -72.378906 Z M 95.4375 -16.234375 "/></g></g></g><g fill="#ffffff" fill-opacity="1"><g transform="translate(316.334694, 479.066782)"><g><path d="M 40.429688 -58.9375 L 40.429688 -72.480469 L 6.203125 -72.480469 L 6.203125 0.101562 L 40.429688 0.101562 L 40.429688 -13.339844 L 19.4375 -13.339844 L 19.4375 -32.878906 L 34.121094 -32.878906 L 34.121094 -46.21875 L 19.4375 -46.21875 L 19.4375 -58.9375 Z M 40.429688 -58.9375 "/></g></g></g><g fill="#ffffff" fill-opacity="1"><g transform="translate(362.966935, 479.066782)"><g><path d="M 32.46875 -37.121094 L 44.152344 -72.480469 L 30.089844 -72.480469 L 25.4375 -58.316406 L 20.78125 -72.480469 L 6.722656 -72.480469 L 18.40625 -37.121094 L 6.203125 0 L 20.164062 0 L 25.4375 -15.820312 L 30.710938 0 L 44.769531 0 Z M 32.46875 -37.121094 "/></g></g></g><g fill="#ffffff" fill-opacity="1"><g transform="translate(413.94185, 479.066782)"><g><path d="M 16.128906 -79.71875 C 17.472656 -80.855469 18.714844 -81.789062 19.851562 -82.304688 C 20.988281 -82.71875 21.921875 -82.304688 24.816406 -80.546875 C 26.054688 -79.71875 27.503906 -78.789062 29.054688 -78.066406 C 30.914062 -77.339844 32.671875 -76.925781 34.222656 -76.925781 C 39.910156 -76.925781 44.253906 -81.0625 47.355469 -83.957031 L 40.738281 -91.09375 L 40.636719 -91.09375 C 36.601562 -87.265625 34.949219 -86.128906 32.878906 -87.0625 C 32.054688 -87.371094 31.019531 -87.992188 29.984375 -88.714844 C 26.882812 -90.679688 22.230469 -93.679688 16.234375 -91.300781 C 13.648438 -90.265625 11.683594 -88.613281 9.925781 -87.265625 C 9.410156 -86.75 8.789062 -86.234375 8.273438 -85.921875 L 14.0625 -78.066406 C 14.785156 -78.582031 15.507812 -79.203125 16.128906 -79.71875 Z M 36.808594 0.101562 L 50.457031 0.101562 L 35.050781 -72.480469 L 20.886719 -72.480469 L 6.203125 0.101562 L 19.75 0.101562 L 22.644531 -14.371094 L 33.8125 -14.371094 Z M 25.4375 -27.710938 L 28.125 -40.945312 L 30.914062 -27.710938 Z M 25.4375 -27.710938 "/></g></g></g><g fill="#ffffff" fill-opacity="1"><g transform="translate(470.707025, 479.066782)"><g><path d="M 63.074219 -72.378906 C 31.226562 -72.378906 6.203125 -56.453125 6.203125 -36.085938 C 6.203125 -15.820312 31.226562 0 63.074219 0 C 95.023438 0 120.042969 -15.820312 120.042969 -36.085938 C 120.042969 -56.453125 95.023438 -72.378906 63.074219 -72.378906 Z M 63.074219 -12.40625 C 42.496094 -12.40625 19.4375 -22.644531 19.4375 -36.085938 C 19.4375 -49.628906 42.496094 -59.867188 63.074219 -59.867188 C 83.75 -59.867188 106.707031 -49.628906 106.707031 -36.085938 C 106.707031 -22.644531 83.75 -12.40625 63.074219 -12.40625 Z M 63.074219 -12.40625 "/></g></g></g><g fill="#ffffff" fill-opacity="1"><g transform="translate(642.37168, 377.873639)"><g><path d="M 15.902344 -8.195312 C 18.796875 -9.921875 24.34375 -12.203125 34.328125 -14.175781 C 34.945312 -14.296875 35.621094 -14.421875 36.363281 -14.605469 C 46.160156 -16.457031 61.015625 -19.289062 62.738281 -28.964844 C 63.726562 -34.574219 59.660156 -39.566406 52.632812 -41.414062 C 46.160156 -43.140625 39.320312 -43.140625 32.664062 -43.140625 L 32.355469 -43.140625 C 20.707031 -43.140625 12.511719 -40.800781 8.011719 -36.175781 C 5.054688 -33.15625 4.3125 -29.890625 4.191406 -27.796875 L 12.449219 -27.796875 C 12.574219 -28.535156 12.941406 -29.460938 13.867188 -30.382812 C 15.53125 -32.109375 20.089844 -34.945312 32.355469 -34.945312 L 32.664062 -34.945312 C 38.765625 -34.945312 45.113281 -34.945312 50.539062 -33.464844 C 52.695312 -32.910156 54.542969 -31.617188 54.359375 -30.382812 C 54.234375 -29.890625 53.867188 -28.042969 48.378906 -26.007812 C 44.128906 -24.40625 38.949219 -23.417969 34.820312 -22.617188 C 34.082031 -22.496094 33.34375 -22.371094 32.726562 -22.25 C 22.863281 -20.277344 15.40625 -17.503906 10.355469 -14.175781 C 3.390625 -9.675781 3.699219 0 3.699219 0 L 63.171875 0 L 63.171875 -8.195312 Z M 15.902344 -8.195312 "/></g></g></g><g fill="#ffffff" fill-opacity="1"><g transform="translate(709.241153, 377.873639)"><g><path d="M 53.371094 -37.101562 C 47.886719 -40.800781 40.675781 -42.894531 33.097656 -42.894531 C 25.515625 -42.894531 18.304688 -40.800781 12.878906 -37.101562 C 6.964844 -33.035156 3.699219 -27.488281 3.699219 -21.449219 C 3.699219 -15.40625 6.964844 -9.859375 12.878906 -5.792969 C 18.304688 -2.035156 25.515625 0.0625 33.097656 0.0625 C 40.675781 0.0625 47.886719 -2.035156 53.371094 -5.792969 C 59.289062 -9.859375 62.554688 -15.40625 62.554688 -21.449219 C 62.554688 -27.488281 59.289062 -33.035156 53.371094 -37.101562 Z M 33.097656 -8.136719 C 21.570312 -8.136719 11.832031 -14.238281 11.832031 -21.449219 C 11.832031 -28.660156 21.570312 -34.761719 33.097656 -34.761719 C 44.621094 -34.761719 54.421875 -28.660156 54.421875 -21.449219 C 54.421875 -14.238281 44.621094 -8.136719 33.097656 -8.136719 Z M 33.097656 -8.136719 "/></g></g></g><g fill="#ffffff" fill-opacity="1"><g transform="translate(642.277101, 431.800638)"><g><path d="M 15.902344 -8.195312 C 18.796875 -9.921875 24.34375 -12.203125 34.328125 -14.175781 C 34.945312 -14.296875 35.621094 -14.421875 36.363281 -14.605469 C 46.160156 -16.457031 61.015625 -19.289062 62.738281 -28.964844 C 63.726562 -34.574219 59.660156 -39.566406 52.632812 -41.414062 C 46.160156 -43.140625 39.320312 -43.140625 32.664062 -43.140625 L 32.355469 -43.140625 C 20.707031 -43.140625 12.511719 -40.800781 8.011719 -36.175781 C 5.054688 -33.15625 4.3125 -29.890625 4.191406 -27.796875 L 12.449219 -27.796875 C 12.574219 -28.535156 12.941406 -29.460938 13.867188 -30.382812 C 15.53125 -32.109375 20.089844 -34.945312 32.355469 -34.945312 L 32.664062 -34.945312 C 38.765625 -34.945312 45.113281 -34.945312 50.539062 -33.464844 C 52.695312 -32.910156 54.542969 -31.617188 54.359375 -30.382812 C 54.234375 -29.890625 53.867188 -28.042969 48.378906 -26.007812 C 44.128906 -24.40625 38.949219 -23.417969 34.820312 -22.617188 C 34.082031 -22.496094 33.34375 -22.371094 32.726562 -22.25 C 22.863281 -20.277344 15.40625 -17.503906 10.355469 -14.175781 C 3.390625 -9.675781 3.699219 0 3.699219 0 L 63.171875 0 L 63.171875 -8.195312 Z M 15.902344 -8.195312 "/></g></g></g><g fill="#ffffff" fill-opacity="1"><g transform="translate(709.146574, 431.800638)"><g><path d="M 46.839844 -17.503906 L 46.839844 -37.285156 L 46.777344 -43.140625 L 37.839844 -43.140625 L 3.699219 -19.351562 L 3.699219 -9.304688 L 38.640625 -9.304688 L 38.640625 0 L 46.839844 0 L 46.839844 -9.304688 L 62.679688 -9.304688 L 62.679688 -17.503906 Z M 38.640625 -17.503906 L 14.359375 -17.503906 L 38.640625 -33.15625 Z M 38.640625 -17.503906 "/></g></g></g></svg>