<svg xmlns="http://www.w3.org/2000/svg" xmlns:xlink="http://www.w3.org/1999/xlink" width="1080" zoomAndPan="magnify" viewBox="0 0 810 809.999993" height="1080" preserveAspectRatio="xMidYMid meet" version="1.0"><defs><g/></defs><path fill="#f76319" d="M 316.378906 432.144531 L 294.316406 410.082031 C 293.511719 409.277344 292.558594 409.128906 292.046875 409.128906 C 291.53125 409.128906 290.582031 409.277344 289.773438 410.082031 L 267.640625 432.214844 C 265.148438 434.707031 261.261719 438.738281 248.289062 438.738281 L 275.480469 465.859375 C 284.058594 474.433594 297.984375 474.433594 306.558594 465.859375 L 333.824219 438.667969 C 327.152344 438.667969 321.582031 437.347656 316.378906 432.144531 Z M 316.378906 432.144531 " fill-opacity="1" fill-rule="nonzero"/><path fill="#f76319" d="M 267.640625 365.8125 L 289.773438 387.945312 C 290.359375 388.535156 291.238281 388.898438 292.046875 388.898438 C 292.851562 388.898438 293.730469 388.535156 294.316406 387.945312 L 316.234375 366.03125 C 321.4375 360.609375 327.375 359.363281 334.042969 359.363281 L 306.777344 332.171875 C 298.203125 323.59375 284.277344 323.59375 275.703125 332.171875 L 248.511719 359.289062 C 261.410156 359.289062 265.367188 363.539062 267.640625 365.8125 Z M 267.640625 365.8125 " fill-opacity="1" fill-rule="nonzero"/><path fill="#f76319" d="M 357.863281 383.257812 L 341.371094 366.691406 L 332.136719 366.691406 C 328.179688 366.691406 324.222656 368.304688 321.511719 371.164062 L 299.523438 393.152344 C 297.46875 395.203125 294.757812 396.230469 292.046875 396.230469 C 289.40625 396.230469 286.621094 395.128906 284.570312 393.152344 L 262.4375 370.941406 C 259.652344 368.15625 255.839844 366.546875 251.808594 366.546875 L 241.035156 366.546875 L 224.25 383.402344 C 215.675781 391.976562 215.675781 405.902344 224.25 414.480469 L 241.035156 431.335938 L 251.882812 431.335938 C 255.839844 431.335938 259.652344 429.722656 262.507812 426.9375 L 284.644531 404.804688 C 286.695312 402.753906 289.40625 401.726562 292.121094 401.726562 C 294.832031 401.726562 297.542969 402.753906 299.59375 404.804688 L 321.65625 426.867188 C 324.441406 429.652344 328.253906 431.261719 332.285156 431.261719 L 341.519531 431.261719 L 358.011719 414.699219 C 366.585938 406.050781 366.585938 391.976562 357.863281 383.257812 Z M 357.863281 383.257812 " fill-opacity="1" fill-rule="nonzero"/><g fill="#f76319" fill-opacity="1"><g transform="translate(377.396822, 434.363259)"><g><path d="M 62.671875 -80.382812 L 6.898438 -80.382812 L 6.898438 0 L 21.621094 0 L 21.621094 -27.597656 L 63.59375 -27.597656 L 63.59375 -27.714844 C 91.078125 -27.945312 113.847656 -31.164062 113.847656 -55.3125 C 113.847656 -80.382812 79.691406 -80.382812 62.671875 -80.382812 Z M 58.992188 -42.433594 L 21.621094 -42.433594 L 21.621094 -65.546875 L 62.671875 -65.546875 C 72.910156 -65.546875 99.011719 -65.546875 99.011719 -55.3125 C 99.011719 -49.332031 100.046875 -42.433594 58.992188 -42.433594 Z M 58.992188 -42.433594 "/></g></g></g><g fill="#f76319" fill-opacity="1"><g transform="translate(498.257755, 434.363259)"><g><path d="M 21.621094 0 L 21.621094 -80.5 L 6.898438 -80.5 L 6.898438 0 Z M 21.621094 0 "/></g></g></g><g fill="#f76319" fill-opacity="1"><g transform="translate(526.891787, 434.363259)"><g><path d="M 36.109375 -41.285156 L 49.105469 -80.613281 L 33.464844 -80.613281 L 28.289062 -64.859375 L 23.113281 -80.613281 L 7.476562 -80.613281 L 20.46875 -41.285156 L 6.898438 0 L 22.425781 0 L 28.289062 -17.59375 L 34.152344 0 L 49.792969 0 Z M 36.109375 -41.285156 "/></g></g></g></svg>