<svg xmlns="http://www.w3.org/2000/svg" xmlns:xlink="http://www.w3.org/1999/xlink" width="1080" zoomAndPan="magnify" viewBox="0 0 810 809.999993" height="1080" preserveAspectRatio="xMidYMid meet" version="1.0"><defs><clipPath id="1be646e857"><path d="M 145 378.375 L 665 378.375 L 665 431.625 L 145 431.625 Z M 145 378.375 " clip-rule="nonzero"/></clipPath></defs><g clip-path="url(#1be646e857)"><path fill="#ffffff" d="M 662.90625 426.289062 C 600.527344 426.632812 538.191406 422.761719 475.882812 420.421875 C 444.890625 419.257812 413.875 418.445312 382.851562 418.617188 C 351.878906 418.789062 320.960938 420.308594 290.050781 422.234375 C 273.292969 423.28125 256.53125 424.402344 239.777344 425.363281 C 276.589844 421.515625 313.464844 418.296875 350.394531 415.707031 C 405.285156 411.859375 460.25 409.375 515.289062 408.257812 C 530.570312 407.941406 545.847656 407.726562 561.128906 407.621094 C 576.929688 407.613281 592.726562 407.601562 608.527344 407.59375 C 608.777344 407.582031 609.015625 407.527344 609.246094 407.421875 C 609.472656 407.320312 609.675781 407.179688 609.847656 406.996094 C 610.019531 406.816406 610.152344 406.609375 610.246094 406.378906 C 610.339844 406.144531 610.386719 405.90625 610.386719 405.652344 C 610.386719 405.402344 610.339844 405.164062 610.246094 404.929688 C 610.152344 404.699219 610.019531 404.492188 609.847656 404.3125 C 609.675781 404.128906 609.472656 403.988281 609.246094 403.886719 C 609.015625 403.78125 608.777344 403.726562 608.527344 403.714844 C 593.375 403.625 578.222656 403.632812 563.070312 403.746094 C 517.757812 403.773438 472.445312 403.851562 427.136719 404.472656 C 367.03125 405.296875 306.820312 406.679688 246.84375 411.019531 C 230.386719 412.207031 213.941406 413.582031 197.582031 415.703125 C 189.65625 416.734375 181.722656 417.804688 173.777344 418.65625 C 223.632812 409.097656 274.277344 403.902344 324.816406 399.5 C 354.8125 396.886719 384.824219 394.488281 414.820312 391.851562 C 429.441406 390.570312 444.066406 389.292969 458.703125 388.128906 C 475.84375 387.921875 492.984375 387.699219 510.125 387.464844 C 542.046875 386.980469 573.972656 386.261719 605.859375 384.734375 C 607.777344 384.640625 608.417969 381.625 606.339844 381.214844 C 592.371094 378.453125 578.074219 378.292969 563.890625 378.734375 C 549.535156 379.183594 535.179688 379.953125 520.824219 380.527344 C 497.296875 381.46875 473.792969 383.136719 450.320312 385.058594 C 445.0625 385.132812 439.808594 385.210938 434.554688 385.289062 C 377.589844 386.1875 320.691406 388.230469 263.855469 392.238281 C 248.035156 393.355469 232.210938 394.574219 216.417969 396.035156 C 201.976562 397.371094 187.609375 399.386719 173.953125 404.492188 C 172.5625 405.007812 173.152344 407.261719 174.574219 406.746094 C 187.140625 402.171875 200.335938 400.160156 213.59375 398.898438 C 227.429688 397.585938 241.304688 396.597656 255.167969 395.609375 C 283.621094 393.582031 312.101562 391.972656 340.609375 390.777344 C 361.980469 389.898438 383.359375 389.335938 404.742188 388.925781 C 351.597656 393.359375 298.371094 397.308594 245.445312 403.8125 C 212.449219 407.867188 179.558594 413 147.117188 420.308594 C 146.902344 420.375 146.703125 420.476562 146.523438 420.613281 C 146.34375 420.75 146.195312 420.914062 146.070312 421.105469 C 145.949219 421.296875 145.863281 421.503906 145.816406 421.722656 C 145.765625 421.945312 145.757812 422.167969 145.789062 422.390625 C 145.820312 422.613281 145.886719 422.828125 145.992188 423.027344 C 146.097656 423.226562 146.234375 423.402344 146.402344 423.554688 C 146.570312 423.707031 146.757812 423.824219 146.96875 423.910156 C 147.179688 423.992188 147.398438 424.039062 147.625 424.046875 C 162.539062 424.046875 177.335938 422.167969 192.105469 420.234375 C 206.945312 418.285156 221.796875 416.777344 236.71875 415.605469 C 266.46875 413.265625 296.277344 411.789062 326.097656 410.730469 C 350.589844 409.859375 375.089844 409.210938 399.601562 408.785156 C 359.007812 411.027344 318.464844 414.019531 277.976562 417.757812 C 247.023438 420.621094 216.121094 423.925781 185.257812 427.671875 C 182.878906 427.960938 182.71875 431.5625 185.257812 431.507812 C 247.453125 430.207031 309.394531 423.460938 371.609375 422.621094 C 433.660156 421.78125 495.65625 425.207031 557.636719 427.601562 C 592.722656 428.957031 627.804688 429.816406 662.917969 429.628906 C 663.132812 429.617188 663.335938 429.566406 663.53125 429.476562 C 663.722656 429.382812 663.894531 429.261719 664.039062 429.105469 C 664.183594 428.949219 664.296875 428.773438 664.375 428.574219 C 664.453125 428.375 664.492188 428.167969 664.492188 427.953125 C 664.492188 427.738281 664.449219 427.535156 664.371094 427.335938 C 664.292969 427.136719 664.175781 426.960938 664.03125 426.804688 C 663.882812 426.652344 663.710938 426.53125 663.515625 426.441406 C 663.324219 426.351562 663.117188 426.300781 662.90625 426.289062 Z M 557.34375 382.65625 C 565.289062 382.3125 573.300781 382.050781 581.289062 382.25 C 564.800781 382.902344 548.304688 383.367188 531.808594 383.734375 C 540.320312 383.367188 548.832031 383.007812 557.34375 382.65625 Z M 557.34375 382.65625 " fill-opacity="1" fill-rule="nonzero"/></g></svg>